<?xml version="1.0" encoding="UTF-8" standalone="no"?>
<!-- Created with Inkscape (http://www.inkscape.org/) -->

<svg
   xmlns:dc="http://purl.org/dc/elements/1.1/"
   xmlns:cc="http://creativecommons.org/ns#"
   xmlns:rdf="http://www.w3.org/1999/02/22-rdf-syntax-ns#"
   xmlns:svg="http://www.w3.org/2000/svg"
   xmlns="http://www.w3.org/2000/svg"
   xmlns:sodipodi="http://sodipodi.sourceforge.net/DTD/sodipodi-0.dtd"
   xmlns:inkscape="http://www.inkscape.org/namespaces/inkscape"
   width="350"
   height="60"
   id="svg3305"
   version="1.1"
   inkscape:version="0.48.5 r10040"
   sodipodi:docname="logo.svg">
  <defs
     id="defs3307" />
  <sodipodi:namedview
     id="base"
     pagecolor="#ffffff"
     bordercolor="#666666"
     borderopacity="1.0"
     inkscape:pageopacity="0.0"
     inkscape:pageshadow="2"
     inkscape:zoom="108.6116"
     inkscape:cx="18.420168"
     inkscape:cy="27.434635"
     inkscape:document-units="px"
     inkscape:current-layer="layer1"
     showgrid="false"
     inkscape:window-width="1366"
     inkscape:window-height="725"
     inkscape:window-x="0"
     inkscape:window-y="21"
     inkscape:window-maximized="1" />
  <metadata
     id="metadata3310">
    <rdf:RDF>
      <cc:Work
         rdf:about="">
        <dc:format>image/svg+xml</dc:format>
        <dc:type
           rdf:resource="http://purl.org/dc/dcmitype/StillImage" />
        <dc:title></dc:title>
      </cc:Work>
    </rdf:RDF>
  </metadata>
  <g
     id="layer1"
     inkscape:label="Layer 1"
     inkscape:groupmode="layer">
    <path
       style="fill:#ffffff"
       d="m 28.928225,58.382149 c -0.892,-0.120323 -2.361947,-0.668658 -3.124185,-1.165415 -0.298304,-0.194411 -0.904266,-0.717016 -1.262002,-1.088404 -0.311545,-0.323423 -1.108199,-1.55886 -1.246926,-1.933695 -0.700755,-1.893407 -0.751979,-3.360181 -0.180697,-5.17345 0.08007,-0.254129 0.119182,-0.488443 0.08693,-0.520701 -0.03228,-0.03224 -0.004,-0.05864 0.06292,-0.05864 0.06686,0 0.09398,-0.04463 0.06027,-0.09918 -0.03371,-0.05455 -0.02038,-0.09918 0.02965,-0.09918 0.05001,0 0.261494,-0.278945 0.469957,-0.619881 0.493406,-0.806922 1.568995,-1.844319 2.336186,-2.253226 0.505457,-0.269408 0.734234,-0.329068 1.347972,-0.35153 1.28395,-0.04699 2.343359,0.527094 3.084949,1.67171 0.146936,0.226793 0.289895,0.434665 0.317677,0.461942 0.02777,0.02729 0.05499,0.105378 0.06043,0.173563 0.0055,0.06819 0.01663,0.215873 0.02479,0.328193 0.03674,0.504293 0.476342,-0.325456 0.611102,-1.153458 0.10503,-0.645281 -0.02358,-1.486908 -0.314243,-2.056674 -0.287777,-0.564087 -1.15208,-1.401849 -1.720095,-1.667275 -0.477654,-0.223199 -0.485251,-0.233026 -0.206422,-0.266987 0.159215,-0.0194 0.493949,0.02314 0.743856,0.09454 0.249905,0.07138 0.476686,0.134603 0.503958,0.140488 0.815224,0.175881 1.901054,1.450201 2.127651,2.496993 l 0.06948,0.320944 0.245581,-0.291852 c 0.135067,-0.160521 0.359132,-0.571309 0.497914,-0.912861 0.761011,-1.872867 0.881049,-3.692521 0.390639,-5.92188 -0.09066,-0.412139 -0.467848,-1.44486 -0.574787,-1.573716 -0.05658,-0.06818 -0.06394,-0.125397 -0.01636,-0.127132 0.04759,-0.0017 0.0068,-0.0636 -0.09056,-0.137483 -0.0974,-0.07388 -0.193854,-0.217515 -0.214354,-0.319183 -0.02051,-0.101669 -0.0858,-0.310351 -0.145126,-0.463738 -0.0984,-0.254396 -0.140529,-0.273787 -0.479914,-0.220824 -0.204625,0.03193 -0.461313,0.08373 -0.570409,0.115111 -0.425653,0.122414 -1.997104,0.939653 -2.238815,1.164302 -0.140369,0.130457 -0.348744,0.266879 -0.463061,0.303163 -0.205409,0.0652 -1.207353,1.006945 -2.145663,2.016771 -0.469039,0.504779 -0.855341,0.673553 -0.855341,0.373689 0,-0.402968 0.799743,-1.936571 1.520356,-2.915445 0.400788,-0.544438 1.731468,-1.893881 1.869496,-1.895855 0.03701,-4.47e-4 0.135914,-0.06959 0.219788,-0.153455 0.290337,-0.29034 1.567016,-1.024057 1.69585,-0.974621 0.07116,0.02733 0.160543,-8.74e-4 0.198633,-0.06241 0.03807,-0.06164 0.170659,-0.150613 0.294598,-0.197736 0.269413,-0.10243 0.331582,-0.36606 0.331582,-1.406074 0,-0.812749 -0.159392,-1.422099 -0.495433,-1.894019 -0.259604,-0.364589 -1.007472,-0.913271 -1.054108,-0.773366 -0.01926,0.05773 -0.133918,0.104967 -0.254833,0.104967 -0.120925,0 -0.262252,0.03923 -0.314078,0.0872 -0.05183,0.04796 -0.272748,0.145947 -0.490945,0.217747 -1.08623,0.357436 -2.108303,0.307162 -2.727845,-0.134177 -0.208281,-0.148372 -0.223962,-0.191419 -0.0988,-0.271231 0.08183,-0.05218 0.230542,-0.09555 0.330476,-0.09639 0.299449,-0.0027 1.676678,-0.50959 1.994608,-0.734399 0.162813,-0.115133 0.408769,-0.309753 0.546555,-0.432488 0.137792,-0.122739 0.282882,-0.223159 0.322434,-0.223159 0.03955,0 0.117817,-0.08577 0.173924,-0.190608 0.164216,-0.306842 -0.654195,-0.526519 -1.965391,-0.527544 -1.488929,-0.0013 -2.148353,0.08309 -3.748307,0.478893 l -1.403484,0.347204 -0.271798,-0.25189 c -0.651563,-0.603857 -2.269521,-1.051745 -3.264691,-0.903747 -0.220449,0.03277 -0.579345,0.08106 -0.797542,0.107281 -0.640238,0.07693 -1.309944,0.245038 -2.608309,0.654712 -0.670877,0.211687 -1.284557,0.384879 -1.363731,0.384879 -0.07918,0 -0.143953,0.04378 -0.143953,0.0973 0,0.05351 -0.122735,0.124986 -0.272748,0.158835 -0.616573,0.139134 -1.919525,0.88335 -2.55296,1.458196 -0.877679,0.796497 -1.637421,1.936013 -1.637421,2.455929 0,0.106528 -0.04727,0.193692 -0.105034,0.193692 -0.05776,0 -0.0798,0.0408 -0.04897,0.09071 0.03086,0.04989 0.01106,0.105707 -0.04392,0.124036 -0.05499,0.01833 -0.171382,0.368031 -0.258654,0.777121 -0.188597,0.884028 -0.136351,2.426712 0.11084,3.2729 0.204535,0.700158 0.867393,2.046675 1.195167,2.427836 0.139735,0.162501 0.210474,0.309989 0.157191,0.327748 -0.05328,0.01775 -0.446622,-0.148947 -0.874085,-0.37046 C 9.3986983,38.450148 9.2351153,38.349255 8.8990073,38.05159 8.7597433,37.928253 8.5788523,37.80587 8.4970283,37.779627 8.4151983,37.753367 7.9688913,37.338716 7.5052203,36.858143 6.5537829,35.87202 6.4565593,35.755727 6.1199971,35.201231 5.9875603,34.983029 5.8497867,34.78219 5.8138285,34.754917 5.7541152,34.709618 4.7905648,32.787016 4.770002,32.672123 4.765102,32.644833 4.709076,32.496893 4.6454614,32.343332 4.5818424,32.189771 4.5297932,31.997153 4.5297932,31.915294 c 0,-0.08186 -0.049495,-0.241319 -0.1099879,-0.354348 C 4.3593117,31.447913 4.2946761,31.238847 4.2761731,31.096356 4.2576702,30.953865 4.2162903,30.636444 4.1842245,30.390969 4.1521675,30.1455 4.1028649,29.587606 4.0746779,29.151212 4.0465,28.714818 4.0022085,28.295036 3.9762644,28.218359 c -0.025948,-0.07667 0.022917,-0.456039 0.1086103,-0.843036 0.500209,-2.259258 0.695966,-2.954702 1.0076721,-3.579862 0.1903889,-0.381844 0.4106948,-0.904653 0.4895665,-1.161791 0.113479,-0.369966 0.3360363,-0.659731 1.0664667,-1.38853 1.7103533,-1.706532 2.5006533,-2.331424 4.013643,-3.173609 0.616721,-0.34329 2.076739,-1.06994 2.149766,-1.06994 0.01788,0 0.248229,-0.09578 0.511859,-0.212859 1.349504,-0.599279 3.761508,-1.377336 6.281395,-2.026224 0.632811,-0.162955 1.839798,-0.557024 2.072512,-0.67666 0.142027,-0.07302 0.592965,-0.282557 1.002081,-0.465656 0.92189,-0.412585 2.625595,-1.470875 3.588784,-2.229243 1.526375,-1.201793 3.629816,-3.568609 4.354196,-4.8993883 0.131684,-0.2419204 0.296093,-0.5018624 0.365347,-0.5776445 0.06925,-0.075788 0.345208,-0.5847749 0.613221,-1.1310939 l 0.487301,-0.993302 0.110733,0.432042 c 0.0609,0.237627 0.13483,0.498992 0.164284,0.580815 0.02947,0.08183 0.07189,0.260353 0.09431,0.396726 0.02242,0.136374 0.06971,0.404159 0.105097,0.595083 0.240302,1.2967868 0.3386,3.9834632 0.188695,5.1573907 -0.211077,1.652944 -0.437883,2.712251 -0.866649,4.047605 -0.110522,0.344226 -0.179372,0.647452 -0.152999,0.673828 0.02639,0.02639 0.153855,0.06736 0.283287,0.09109 0.129423,0.02372 0.458477,0.08954 0.731224,0.146276 0.956944,0.199034 4.05843,0.235015 5.362788,0.06222 1.293527,-0.17137 3.117764,-0.596764 3.211836,-0.748966 0.08337,-0.134898 0.543951,-0.295503 1.01839,-0.355114 0.224778,-0.02822 0.541776,-0.117741 0.704442,-0.198887 0.162661,-0.08115 0.339393,-0.147547 0.39274,-0.147547 0.177807,0 1.900537,-0.914073 2.267146,-1.202938 0.198775,-0.156621 0.41077,-0.284768 0.471103,-0.284768 0.06034,0 0.109707,-0.05207 0.109707,-0.115713 0,-0.06364 0.02719,-0.08849 0.06049,-0.05522 0.06115,0.06115 0.756205,-0.335809 1.0305,-0.588519 0.08182,-0.07539 0.349601,-0.301273 0.59508,-0.501966 0.839121,-0.686064 2.366147,-2.3043785 2.873191,-3.0449615 1.30578,-1.9072376 2.134116,-3.4953417 2.738044,-5.2494727 0.228933,-0.664952 0.398318,-1.024842 0.443447,-0.942216 0.113051,0.207001 0.352676,1.414474 0.489063,2.464445 0.107892,0.830618 0.05193,4.3341682 -0.08159,5.1077982 -0.05649,0.327297 -0.126891,0.751292 -0.156446,0.942216 -0.06238,0.402905 -0.08304,0.492861 -0.341775,1.487711 -0.170963,0.65735 -0.344735,1.178211 -0.744506,2.231561 -0.422314,1.112729 -2.015176,3.705883 -2.839097,4.621999 -0.512171,0.569482 -1.9962,2.044156 -2.320706,2.306077 -0.212677,0.171659 -0.456906,0.390213 -0.542742,0.48567 -0.08583,0.09546 -0.202373,0.173567 -0.258992,0.173567 -0.05662,0 -0.214073,0.102524 -0.349889,0.227832 -0.135821,0.125307 -0.689055,0.504672 -1.229414,0.843035 -0.540367,0.338365 -0.936438,0.615205 -0.880171,0.615205 0.08842,0 0.834021,-0.302268 1.465927,-0.59428 0.33349,-0.15411 1.69277,-0.583553 2.504565,-0.791277 2.678553,-0.685385 5.450094,-0.753486 8.116391,-0.199422 0.793532,0.164899 1.047099,0.223846 1.553461,0.36112 0.259889,0.07046 0.209319,0.219802 -0.09918,0.292909 -0.570021,0.135085 -1.963875,0.806989 -2.931571,1.413155 -1.221478,0.765136 -2.347516,1.681462 -3.541337,2.881792 -1.944645,1.955252 -2.725773,3.053558 -3.864282,5.433361 -0.510546,1.067194 -1.121662,2.874035 -1.255819,3.712964 -0.03335,0.20875 -0.08859,0.362267 -0.122686,0.341142 -0.03411,-0.02114 -0.05737,0.121504 -0.0517,0.316945 0.0056,0.195436 -0.02443,0.514793 -0.06686,0.709676 -0.08116,0.372735 -0.15427,1.317421 -0.242326,3.131386 -0.189404,3.901693 -1.118441,6.867997 -3.104537,9.912352 -0.251159,0.384983 -0.483993,0.722285 -0.517424,0.749558 -0.03343,0.02729 -0.272181,0.311207 -0.530562,0.630956 -0.75485,0.934129 -2.707048,2.69806 -3.780582,3.416006 -1.187807,0.794358 -2.657701,1.534539 -3.967225,1.997742 -0.327298,0.115771 -0.662032,0.238015 -0.743856,0.271655 -0.823141,0.338404 -3.346328,0.528392 -4.661489,0.350995 z"
       id="path3074"
       inkscape:connector-curvature="0" />
    <path
       style="fill:#ffffff;stroke:#000000;stroke-width:0.07379221000000000px;stroke-linecap:butt;stroke-linejoin:miter;stroke-opacity:1"
       d="m 22.125812,28.936689 c 0,0 -9.317671,4.323397 -4.621562,3.018923 4.696105,-1.304473 4.509751,-1.528096 4.509751,-1.528096 z"
       id="path3137"
       inkscape:connector-curvature="0" />
    <path
       style="fill:#280b0b"
       d="m 16.32726,32.051346 c 0.268079,-0.296221 2.677185,-1.580069 5.156156,-2.74779 l 0.572838,-0.269836 -0.02639,0.42255 c -0.01453,0.232407 -0.03749,0.546556 -0.05105,0.698116 l -0.02465,0.27556 -0.242255,0.119578 c -0.72212,0.356443 -4.82884,1.577444 -5.305579,1.577444 -0.14584,0 -0.146727,-8.73e-4 -0.07906,-0.07562 z"
       id="path3139"
       inkscape:connector-curvature="0" />
    <path
       style="fill:#ffffff"
       d="m 16.420216,32.001442 c 0.212584,-0.186773 1.001449,-0.638531 2.206264,-1.263455 1.213965,-0.629672 3.378109,-1.683048 3.404191,-1.656966 0.01289,0.01284 -0.06077,1.127843 -0.08384,1.269661 -0.01155,0.07092 -0.03759,0.09038 -0.243499,0.182056 -0.990916,0.441142 -4.802521,1.573694 -5.280611,1.569039 l -0.115423,-0.0013 0.112921,-0.09921 z"
       id="path3143"
       inkscape:connector-curvature="0" />
    <path
       style="fill:#ffffff"
       d="m 34.173587,42.097848 c 0.108017,-0.673285 0.08573,-1.913261 -0.04962,-2.760676 -0.06795,-0.425465 -0.17046,-0.934748 -0.228087,-1.133237 -0.12561,-0.432631 -0.374023,-1.09564 -0.491938,-1.312959 -0.05366,-0.0989 -0.06135,-0.131683 -0.03473,-0.148121 0.02496,-0.01543 -0.0074,-0.06724 -0.119997,-0.192249 -0.14221,-0.157868 -0.161765,-0.195418 -0.252256,-0.484381 -0.113921,-0.363764 -0.175551,-0.476155 -0.274758,-0.501056 -0.09973,-0.02501 -0.692556,0.07693 -0.959676,0.165051 -0.242643,0.08005 -1.179117,0.538927 -1.653925,0.810435 -0.164075,0.09382 -0.40843,0.253352 -0.54302,0.354513 -0.134586,0.101164 -0.308688,0.216056 -0.3869,0.255318 -0.278717,0.139927 -0.632231,0.458669 -1.723456,1.553943 -0.871036,0.874263 -1.02684,1.002767 -1.192703,0.983676 -0.06485,-0.0075 -0.07315,-0.02006 -0.08049,-0.12199 -0.01146,-0.159193 0.07021,-0.390583 0.323058,-0.9153 0.372003,-0.771976 0.885685,-1.618467 1.286741,-2.120379 0.444304,-0.556044 1.492651,-1.606874 1.753819,-1.757975 0.06784,-0.03923 0.20228,-0.137105 0.298755,-0.217456 0.40402,-0.336496 1.401081,-0.888999 1.639368,-0.908421 0.09828,-0.008 0.147355,-0.02898 0.210831,-0.09009 0.0455,-0.04383 0.152719,-0.118986 0.238247,-0.167062 0.289244,-0.162577 0.32843,-0.284607 0.350438,-1.091301 0.02474,-0.907065 -0.05622,-1.409611 -0.311555,-1.933999 -0.120956,-0.248386 -0.162916,-0.3052 -0.401916,-0.544188 -0.261489,-0.261481 -0.602256,-0.512898 -0.743058,-0.548241 -0.05276,-0.01324 -0.08617,-0.0036 -0.13035,0.03803 -0.04119,0.0387 -0.118843,0.06405 -0.25325,0.08268 -0.135696,0.01882 -0.241822,0.05369 -0.353777,0.116301 -0.191445,0.107063 -0.607472,0.246808 -0.987225,0.331605 -0.240217,0.05364 -0.343955,0.06154 -0.79042,0.06017 -0.582893,-0.0018 -0.770785,-0.03727 -1.125454,-0.212512 -0.220773,-0.109083 -0.422135,-0.273782 -0.392789,-0.321265 0.0371,-0.06005 0.17939,-0.113608 0.406656,-0.153076 0.379083,-0.06583 1.347769,-0.402472 1.76686,-0.614031 0.154461,-0.07797 0.418786,-0.26906 0.767864,-0.555107 0.108713,-0.08908 0.239166,-0.18367 0.2899,-0.210194 0.174311,-0.09113 0.261561,-0.287768 0.176964,-0.398839 -0.04877,-0.06403 -0.230088,-0.148452 -0.445168,-0.207279 -0.356813,-0.09759 -0.819468,-0.134576 -1.677092,-0.13409 -1.535845,8.73e-4 -1.987617,0.06949 -4.420897,0.671547 l -0.555058,0.13733 -0.169692,-0.156361 c -0.09333,-0.086 -0.220703,-0.191557 -0.283042,-0.234577 -0.627069,-0.432702 -1.614258,-0.736503 -2.52209,-0.776158 -0.281682,-0.01231 -0.436331,-0.0027 -0.869694,0.05476 -1.127927,0.149206 -1.522545,0.237472 -2.780381,0.621901 -0.9244,0.282521 -1.557827,0.465869 -1.678528,0.485862 -0.08251,0.01364 -0.127492,0.04066 -0.17782,0.106621 -0.05707,0.07483 -0.11274,0.102904 -0.363934,0.183559 -0.553939,0.177869 -1.428836,0.649806 -2.036723,1.098649 -0.323637,0.238965 -0.935595,0.837605 -1.208017,1.181729 -0.4032,0.509323 -0.746169,1.110976 -0.807902,1.417261 -0.01672,0.08295 -0.03865,0.192333 -0.0488,0.243062 -0.0128,0.0642 -0.04017,0.102707 -0.09005,0.126681 -0.05838,0.02804 -0.06861,0.04656 -0.05523,0.09989 0.0103,0.04107 0.0018,0.08224 -0.02305,0.110505 -0.073,0.08332 -0.121561,0.206494 -0.200581,0.508734 -0.172568,0.660052 -0.225856,1.415313 -0.161604,2.290357 0.0674,0.917867 0.184807,1.376313 0.567462,2.21572 0.307238,0.673964 0.572482,1.153284 0.835113,1.509117 0.153681,0.208218 0.183536,0.281026 0.115235,0.281026 -0.133667,0 -1.444636,-0.66106 -1.847136,-0.931426 C 9.210089,38.281465 9.055913,38.163754 8.954451,38.078297 8.852991,37.992837 8.687655,37.873758 8.587043,37.813665 8.3893623,37.695602 7.8206303,37.16536 7.2389193,36.556781 6.6938657,35.98656 6.4995447,35.751657 6.2251966,35.331332 6.0832809,35.11391 5.9297775,34.884884 5.8840774,34.822388 5.7682443,34.66398 5.2940331,33.759189 5.0157884,33.165698 4.7404596,32.578423 4.606351,32.228422 4.5501509,31.950481 4.5275461,31.838642 4.4698614,31.646336 4.4219766,31.523129 4.3740918,31.399921 4.3222032,31.239819 4.3066696,31.167346 4.2569746,30.935523 4.1731405,30.188917 4.1054374,29.375249 4.069234,28.940403 4.0256071,28.470784 4.0084461,28.331655 3.9817395,28.114912 3.9837012,28.03945 4.0222677,27.80457 4.1384753,27.097239 4.6180056,25.114259 4.8150868,24.526047 4.8782199,24.337612 5.0334889,23.958109 5.160125,23.682709 5.2867612,23.407304 5.4580096,23.003105 5.54068,22.784489 5.6233459,22.565873 5.7352912,22.320248 5.7894492,22.238656 6.1532267,21.690607 7.9862073,19.915971 8.9067553,19.220584 l 0.215865,-0.163067 18.7265057,0 18.726503,0 -0.0067,1.876853 -0.0067,1.876857 -0.816984,0.535374 c -0.824502,0.540296 -1.012822,0.673843 -0.987712,0.700438 0.02332,0.02465 0.36463,-0.101356 0.885402,-0.326919 0.542021,-0.234764 0.868984,-0.366844 0.908139,-0.366844 0.03389,0 0.01239,13.58081 -0.02216,14.007342 -0.01409,0.173941 -0.05022,0.476355 -0.08029,0.672037 -0.08138,0.52968 -0.11796,0.997395 -0.216449,2.768117 -0.02947,0.529564 -0.06212,1.057308 -0.07258,1.172767 l -0.01904,0.209927 -5.991358,0.0067 -5.991353,0.0067 0.01587,-0.09889 z"
       id="path3145"
       inkscape:connector-curvature="0" />
    <flowRoot
       xml:space="preserve"
       id="flowRoot3328"
       style="font-size:40px;font-style:normal;font-weight:normal;line-height:125%;letter-spacing:0px;word-spacing:0px;fill:#ff0000;fill-opacity:1;stroke:none;font-family:Sans"><flowRegion
         id="flowRegion3330"><rect
           id="rect3332"
           width="226.27417"
           height="41.247894"
           x="65.407379"
           y="11.091781"
           style="fill:#ff0000" /></flowRegion><flowPara
         id="flowPara3334">LoLooosdsads</flowPara></flowRoot>    <text
       xml:space="preserve"
       style="font-size:40px;font-style:normal;font-weight:normal;line-height:125%;letter-spacing:0px;word-spacing:0px;fill:#ffffff;fill-opacity:1;stroke:none;font-family:Sans"
       x="66.12542"
       y="41.973034"
       id="text3336"
       sodipodi:linespacing="125%"><tspan
         sodipodi:role="line"
         id="tspan3338"
         x="66.12542"
         y="41.973034"
         style="font-size:25px;font-style:normal;font-variant:normal;font-weight:normal;font-stretch:normal;line-height:125%;fill:#ffffff;font-family:Audiowide;-inkscape-font-specification:Audiowide">Longboard Bulgaria</tspan></text>
    <path
       style="fill:#ffffff"
       d="m 22.138512,57.951261 c -0.01995,-0.01817 -0.450013,-0.05631 -0.955693,-0.08476 C 18.487489,57.71488 15.693288,56.894596 13.083703,55.48887 8.8557875,53.211389 5.5914034,49.625012 3.6425885,45.116502 2.2013542,41.782261 1.7337099,37.694515 2.3373729,33.707416 2.4247299,33.130443 2.5243946,32.605195 2.5588524,32.5402 c 0.034457,-0.065 0.1183718,0.162559 0.1864756,0.50568 0.252306,1.271166 0.9974337,3.193089 1.5850885,4.088453 0.1764867,0.268897 0.474677,0.731822 0.6626468,1.028721 0.4591005,0.725152 1.9283698,2.224697 2.8976839,2.957396 0.433386,0.327592 1.30796,0.853891 1.9434951,1.16955 l 1.1555187,0.573925 0.155495,0.920897 c 0.08552,0.506492 0.26278,1.271908 0.393909,1.700924 1.677261,5.487542 5.121381,9.471717 10.011421,11.581259 0.606817,0.261778 1.200225,0.523155 1.318683,0.580839 0.11846,0.05768 0.283955,0.109449 0.367768,0.115033 0.417801,0.02784 0.500113,0.04633 0.446215,0.100223 -0.0626,0.0626 -1.48375,0.143707 -1.54474,0.08816 z"
       id="path3380"
       inkscape:connector-curvature="0" />
  </g>
</svg>
